HIERARCHY
ROOT root
{
  OFFSET 0 87.9003 0
  CHANNELS 6 Xposition Yposition Zposition Zrotation Xrotation Yrotation
  JOINT torso_1
  {
    OFFSET 0 4.78511 -1.08482
    CHANNELS 6 Xposition Yposition Zposition Zrotation Xrotation Yrotation
    JOINT torso_2
    {
      OFFSET 0 5.29195 1.00949
      CHANNELS 6 Xposition Yposition Zposition Zrotation Xrotation Yrotation
      JOINT torso_3
      {
        OFFSET -9.66735e-18 5.64355 0.108362
        CHANNELS 6 Xposition Yposition Zposition Zrotation Xrotation Yrotation
        JOINT torso_4
        {
          OFFSET -1.04072e-17 6.12977 -0.417886
          CHANNELS 6 Xposition Yposition Zposition Zrotation Xrotation Yrotation
          JOINT torso_5
          {
            OFFSET -1.85891e-17 7.16586 -1.41888
            CHANNELS 6 Xposition Yposition Zposition Zrotation Xrotation Yrotation
            JOINT torso_6
            {
              OFFSET -2.38665e-17 8.94839 -0.861631
              CHANNELS 6 Xposition Yposition Zposition Zrotation Xrotation Yrotation
              JOINT torso_7
              {
                OFFSET -2.73615e-17 9.94144 1.48576
                CHANNELS 6 Xposition Yposition Zposition Zrotation Xrotation Yrotation
                JOINT neck_1
                {
                  OFFSET -1.21725e-17 4.50977 0.67399
                  CHANNELS 6 Xposition Yposition Zposition Zrotation Xrotation Yrotation
                  JOINT neck_2
                  {
                    OFFSET -1.70689e-17 4.54241 0.39741
                    CHANNELS 6 Xposition Yposition Zposition Zrotation Xrotation Yrotation
                    JOINT head
                    {
                      OFFSET -1.89342e-17 4.5512 0.720839
                      CHANNELS 6 Xposition Yposition Zposition Zrotation Xrotation Yrotation
                      End Site
                      {
                        OFFSET 0 0.1 0
                      }
                    }
                  }
                }
                JOINT l_shoulder
                {
                  OFFSET 1.16172 -7.16758 7.09827
                  CHANNELS 6 Xposition Yposition Zposition Zrotation Xrotation Yrotation
                  JOINT l_up_arm
                  {
                    OFFSET 12.2059 3.06167 -3.07978
                    CHANNELS 6 Xposition Yposition Zposition Zrotation Xrotation Yrotation
                    JOINT l_low_arm
                    {
                      OFFSET 27.5197 0.056351 0.129118
                      CHANNELS 6 Xposition Yposition Zposition Zrotation Xrotation Yrotation
                      JOINT l_hand
                      {
                        OFFSET 22.8331 0.0467536 0.107129
                        CHANNELS 6 Xposition Yposition Zposition Zrotation Xrotation Yrotation
                        End Site
                        {
                          OFFSET 0.1 0 0
                        }
                      }
                    }
                  }
                }
                JOINT r_shoulder
                {
                  OFFSET -1.16172 -7.16756 7.09818
                  CHANNELS 6 Xposition Yposition Zposition Zrotation Xrotation Yrotation
                  JOINT r_up_arm
                  {
                    OFFSET -12.2059 3.06167 -3.07978
                    CHANNELS 6 Xposition Yposition Zposition Zrotation Xrotation Yrotation
                    JOINT r_low_arm
                    {
                      OFFSET -27.5197 0.056351 0.129118
                      CHANNELS 6 Xposition Yposition Zposition Zrotation Xrotation Yrotation
                      JOINT r_hand
                      {
                        OFFSET -22.8331 0.0467534 0.107129
                        CHANNELS 6 Xposition Yposition Zposition Zrotation Xrotation Yrotation
                        End Site
                        {
                          OFFSET -0.1 0 0
                        }
                      }
                    }
                  }
                }
              }
            }
          }
        }
      }
    }
  }
  JOINT l_up_leg
  {
    OFFSET 8.70282 -3.96247 1.9152
    CHANNELS 6 Xposition Yposition Zposition Zrotation Xrotation Yrotation
    JOINT l_low_leg
    {
      OFFSET -0.803084 -36.5309 -0.617314
      CHANNELS 6 Xposition Yposition Zposition Zrotation Xrotation Yrotation
      JOINT l_foot
      {
        OFFSET -2.19176 -38.0664 -5.69911
        CHANNELS 6 Xposition Yposition Zposition Zrotation Xrotation Yrotation
        JOINT l_toes
        {
          OFFSET 0.734061 -9.31305 11.7736
          CHANNELS 6 Xposition Yposition Zposition Zrotation Xrotation Yrotation
          End Site
          {
            OFFSET 0 0 0.1
          }
        }
      }
    }
  }
  JOINT r_up_leg
  {
    OFFSET -8.70282 -3.96247 1.9152
    CHANNELS 6 Xposition Yposition Zposition Zrotation Xrotation Yrotation
    JOINT r_low_leg
    {
      OFFSET 0.803084 -36.5309 -0.617314
      CHANNELS 6 Xposition Yposition Zposition Zrotation Xrotation Yrotation
      JOINT r_foot
      {
        OFFSET 2.19176 -38.0664 -5.69911
        CHANNELS 6 Xposition Yposition Zposition Zrotation Xrotation Yrotation
        JOINT r_toes
        {
          OFFSET -0.734061 -9.31305 11.7736
          CHANNELS 6 Xposition Yposition Zposition Zrotation Xrotation Yrotation
          End Site
          {
            OFFSET 0 0 0.1
          }
        }
      }
    }
  }
}
MOTION
Frames: 5
Frame Time: 0.020000
0 87.9003 0 -0 0 -0 0 4.78511 -1.08482 -0 0 -0 0 5.29195 1.00949 -0 0 -0 -9.66735e-18 5.64355 0.108362 -0 0 -0 -1.04072e-17 6.12977 -0.417886 -0 0 -0 -1.85891e-17 7.16586 -1.41888 -0 0 -0 -2.38665e-17 8.94839 -0.861631 -0 0 -0 -2.73615e-17 9.94144 1.48576 -0 0 -0 -1.21725e-17 4.50977 0.67399 -0 0 -0 -1.70689e-17 4.54241 0.39741 -0 0 -0 -1.89342e-17 4.5512 0.720839 -0 0 -0 1.16172 -7.16758 7.09827 -0 0 -0 12.2059 3.06167 -3.07978 -0 0 -0 27.5197 0.056351 0.129118 -0 0 -0 22.8331 0.0467536 0.107129 -0 0 -0 -1.16172 -7.16756 7.09818 -0 0 -0 -12.2059 3.06167 -3.07978 -0 0 -0 -27.5197 0.056351 0.129118 -0 0 -0 -22.8331 0.0467534 0.107129 -0 0 -0 8.70282 -3.96247 1.9152 -0 0 -0 -0.803084 -36.5309 -0.617314 -0 0 -0 -2.19176 -38.0664 -5.69911 -0 0 -0 0.734061 -9.31305 11.7736 -0 0 -0 -8.70282 -3.96247 1.9152 -0 0 -0 0.803084 -36.5309 -0.617314 -0 0 -0 2.19176 -38.0664 -5.69911 -0 0 -0 -0.734061 -9.31305 11.7736 -0 0 -0 
4.05325 87.6954 -6.71144 -0.946724 3.51468 -3.31629 0 4.78511 -1.08482 -1.44735 -2.48895 -1.14979 0 5.29195 1.00949 -0.926647 -1.06838 -1.2675 -9.66735e-18 5.64355 0.108362 -0.582625 0.684551 -1.24337 -1.04072e-17 6.12977 -0.417886 -0.149227 3.50733 -1.31896 -1.85891e-17 7.16586 -1.41888 -0.0803275 4.76929 -1.38815 -2.38665e-17 8.94839 -0.861631 -0.261359 5.63562 -1.63121 -2.73615e-17 9.94144 1.48576 0.439229 0.557073 -0.413743 -1.21725e-17 4.50977 0.67399 0.344614 4.88952 0.823219 -1.70689e-17 4.54241 0.39741 1.34105 -5.22811 0.3368 -1.89342e-17 4.5512 0.720839 2.50806 -6.72294 7.43354 1.16172 -7.16758 7.09827 2.03478 1.04975 7.76942 12.2059 3.06167 -3.07978 -86.412 27.9383 24.6308 27.5197 0.056351 0.129118 8.35973 -3.36489 -44.3843 22.8331 0.0467536 0.107129 0.237157 -18.6986 -6.54614 -1.16172 -7.16756 7.09818 -13.971 -2.31416 -8.85281 -12.2059 3.06167 -3.07978 66.7887 8.62203 -21.7601 -27.5197 0.056351 0.129118 -9.35263 -19.2912 129.192 -22.8331 0.0467534 0.107129 0.112713 2.18606 12.0841 8.70282 -3.96247 1.9152 7.3632 -3.88428 -14.3679 -0.803084 -36.5309 -0.617314 -0.580664 2.16853 -0.0268641 -2.19176 -38.0664 -5.69911 -4.6327 -3.00522 15.9849 0.734061 -9.31305 11.7736 2.48481e-17 -7.95139e-16 1.2424e-17 -8.70282 -3.96247 1.9152 -2.02913 -4.26233 18.2829 0.803084 -36.5309 -0.617314 0.805546 3.00853 0.0313686 2.19176 -38.0664 -5.69911 2.22065 -2.38172 -15.4766 -0.734061 -9.31305 11.7736 -5.97946e-16 -5.59032e-16 -1.2747e-14 
4.05112 87.6835 -6.65705 -1.06058 3.38865 -3.00357 0 4.78511 -1.08482 -1.39984 -2.72453 -1.26146 0 5.29195 1.00949 -0.870083 -1.21819 -1.35355 -9.66735e-18 5.64355 0.108362 -0.528682 0.649045 -1.3306 -1.04072e-17 6.12977 -0.417886 -0.0922415 3.67263 -1.40336 -1.85891e-17 7.16586 -1.41888 -0.044104 5.05988 -1.48489 -2.38665e-17 8.94839 -0.861631 -0.270559 6.00702 -1.74266 -2.73615e-17 9.94144 1.48576 0.433162 0.534163 -0.40144 -1.21725e-17 4.50977 0.67399 0.290806 4.91303 0.80531 -1.70689e-17 4.54241 0.39741 1.29649 -5.16017 0.336659 -1.89342e-17 4.5512 0.720839 2.4638 -6.55129 7.54689 1.16172 -7.16758 7.09827 1.66258 0.830809 7.997 12.2059 3.06167 -3.07978 -86.0738 28.1906 24.8721 27.5197 0.056351 0.129118 8.37616 -3.3808 -44.4935 22.8331 0.0467536 0.107129 0.277689 -19.0171 -6.742 -1.16172 -7.16756 7.09818 -13.3844 -2.42137 -8.80804 -12.2059 3.06167 -3.07978 65.6027 7.96112 -23.1843 -27.5197 0.056351 0.129118 -9.30683 -19.3445 129.538 -22.8331 0.0467534 0.107129 0.445436 0.77794 13.0265 8.70282 -3.96247 1.9152 7.43664 -3.82416 -14.7069 -0.803084 -36.5309 -0.617314 -0.601546 2.24654 -0.0274213 -2.19176 -38.0664 -5.69911 -4.5082 -3.09216 15.984 0.734061 -9.31305 11.7736 2.48481e-17 -7.95139e-16 1.2424e-17 -8.70282 -3.96247 1.9152 -1.96157 -4.05429 18.1148 0.803084 -36.5309 -0.617314 0.811898 3.03225 0.0314479 2.19176 -38.0664 -5.69911 2.22474 -2.38737 -15.4712 -0.734061 -9.31305 11.7736 -2.00377e-16 -5.8383e-16 -1.27594e-14 
4.04851 87.6701 -6.58661 -1.18637 3.23926 -2.65215 0 4.78511 -1.08482 -1.34122 -2.99444 -1.39084 0 5.29195 1.00949 -0.800039 -1.39315 -1.45137 -9.66735e-18 5.64355 0.108362 -0.460513 0.601661 -1.43037 -1.04072e-17 6.12977 -0.417886 -0.0199556 3.84654 -1.50004 -1.85891e-17 7.16586 -1.41888 0.00650555 5.38076 -1.59672 -2.38665e-17 8.94839 -0.861631 -0.271217 6.423 -1.8772 -2.73615e-17 9.94144 1.48576 0.421755 0.507675 -0.382025 -1.21725e-17 4.50977 0.67399 0.222553 4.85795 0.733414 -1.70689e-17 4.54241 0.39741 1.24094 -5.04437 0.315063 -1.89342e-17 4.5512 0.720839 2.35333 -6.35793 7.67868 1.16172 -7.16758 7.09827 1.18516 0.609804 8.2297 12.2059 3.06167 -3.07978 -85.6892 28.613 25.2968 27.5197 0.056351 0.129118 8.3867 -3.39104 -44.5637 22.8331 0.0467536 0.107129 0.193484 -19.6933 -7.10511 -1.16172 -7.16756 7.09818 -12.4892 -2.51137 -8.69405 -12.2059 3.06167 -3.07978 64.2573 7.4292 -25.0173 -27.5197 0.056351 0.129118 -9.27609 -19.3799 129.768 -22.8331 0.0467534 0.107129 1.11777 -0.941352 14.0913 8.70282 -3.96247 1.9152 7.518 -3.73123 -15.0705 -0.803084 -36.5309 -0.617314 -0.619653 2.31419 -0.0278814 -2.19176 -38.0664 -5.69911 -4.36485 -3.1779 15.973 0.734061 -9.31305 11.7736 -3.71129e-16 -8.07513e-16 2.47983e-17 -8.70282 -3.96247 1.9152 -1.89489 -3.73551 17.9551 0.803084 -36.5309 -0.617314 0.785408 2.93332 0.0310997 2.19176 -38.0664 -5.69911 2.30326 -2.3941 -15.4759 -0.734061 -9.31305 11.7736 -5.94762e-16 -5.59181e-16 -1.27471e-14 
4.06639 87.6458 -6.50898 -1.30894 3.13702 -2.31959 0 4.78511 -1.08482 -1.27171 -3.3388 -1.52271 0 5.29195 1.00949 -0.721278 -1.6244 -1.54634 -9.66735e-18 5.64355 0.108362 -0.386085 0.5266 -1.5285 -1.04072e-17 6.12977 -0.417886 0.057396 4.04227 -1.59465 -1.85891e-17 7.16586 -1.41888 0.0612412 5.75901 -1.7075 -2.38665e-17 8.94839 -0.861631 -0.271418 6.90615 -2.01356 -2.73615e-17 9.94144 1.48576 0.406219 0.474906 -0.360078 -1.21725e-17 4.50977 0.67399 0.141527 4.79794 0.655769 -1.70689e-17 4.54241 0.39741 1.14295 -4.96327 0.291941 -1.89342e-17 4.5512 0.720839 2.15877 -6.18159 7.76637 1.16172 -7.16758 7.09827 0.753413 0.361551 8.48367 12.2059 3.06167 -3.07978 -85.4989 29.2115 25.803 27.5197 0.056351 0.129118 8.3951 -3.39924 -44.6197 22.8331 0.0467536 0.107129 0.326407 -20.7987 -7.34137 -1.16172 -7.16756 7.09818 -11.5724 -2.59244 -8.58852 -12.2059 3.06167 -3.07978 63.0287 7.26521 -26.9987 -27.5197 0.056351 0.129118 -9.26704 -19.3902 129.836 -22.8331 0.0467534 0.107129 1.93482 -1.96275 14.7918 8.70282 -3.96247 1.9152 7.58812 -3.67424 -15.4182 -0.803084 -36.5309 -0.617314 -0.638695 2.38532 -0.0283422 -2.19176 -38.0664 -5.69911 -4.20791 -3.33065 15.9617 0.734061 -9.31305 11.7736 4.19233e-16 -7.82814e-16 9.95274e-20 -8.70282 -3.96247 1.9152 -1.83788 -3.42606 17.8233 0.803084 -36.5309 -0.617314 0.743502 2.77681 0.0304555 2.19176 -38.0664 -5.69911 2.33108 -2.42018 -15.4716 -0.734061 -9.31305 11.7736 -5.96354e-16 -5.59082e-16 -1.27471e-14 
